<svg id="Layer_1" data-name="Layer 1" xmlns="http://www.w3.org/2000/svg" viewBox="0 0 638 250.34">
    <defs>
        <style>.cls-1{fill:#039;}.cls-2{fill:#fff;}.cls-3{fill:#fa002c;}</style>
    </defs>
    <title>NBA Logo Vector</title>
    <path class="cls-1" d="M259.87,612.55c.23-5.29,1.07-11.26,1.07-11.26s-1.3-2.94-2.06-5,0-1.69.23-2.42a8.13,8.13,0,0,0-1.29-5c-1.59-2.34-5.32-10.2-5.55-10.2s1.3-2.12,1.3-2.12l-3.2-7.1s-18.16-13.6-25.83-20.7-21.88-31-23.18-31.21a10.5,10.5,0,0,0-4,.53s-.83-2.35-1.9-5.82c-.53-1.66-2.88-7.33-5.09-12.85-2.13-5.29-4.1-10.5-4.1-12,0-3.18,0-7.63.76-10.81s5.32-7.86,5-7.86-1.06-1.58-1.06-1.58-3.42,2.26-7.6-1.14-1.06-13.14,6.54-31.51,10.86-21.91,12.46-23.19a8.37,8.37,0,0,1,2.58-1.89l7.9-.23,1.07-1.29,7.44-.3s4.78-.23,2.89-12.31a31.53,31.53,0,0,1-1.59-4.76c0-.76,1.06-1.82,1.29-2,2.55-2.55,2.55-2.05,2.88-9.45l3.5-2.64,2.05-1.59H196.88A15.81,15.81,0,0,0,181,390.55V609.38a15.87,15.87,0,0,0,15.88,15.79h66S259.64,621.17,259.87,612.55Z" transform="translate(-181 -374.83)"/>
    <polygon class="cls-2" points="30.01 236.92 20.97 236.92 15.49 212.06 15.49 236.92 9.57 236.92 9.57 205.18 20.13 205.18 24.01 225.81 24.08 205.18 30.01 205.18 30.01 236.92"/>
    <path class="cls-2" d="M231.17,588.85c0,3-.83,5.22-5.7,6V595c4,.3,5.7,1.82,5.7,6.88v2.79c0,5.44-3,7.11-9,7.11h-8.89V580h8.89c4.71,0,9,1.59,9,6.42Z" transform="translate(-181 -374.83)"/>
    <polygon class="cls-2" points="63.36 236.92 62.53 228.3 58.88 228.3 57.74 236.92 50.98 236.92 56.67 205.18 66.7 205.18 71.26 236.92 63.36 236.92"/>
    <path class="cls-1" d="M221.81,584.56h-.91v8.7h.91c1.22,0,1.75-.53,1.75-2v-4.6C223.56,585.09,223,584.56,221.81,584.56Z" transform="translate(-181 -374.83)"/>
    <path class="cls-1" d="M221.81,597.19h-.91v10h.91c1.22,0,1.75-.23,1.75-1.51v-7C223.56,597.42,223,597.19,221.81,597.19Z" transform="translate(-181 -374.83)"/>
    <polygon class="cls-1" points="59.6 223.78 62.03 223.78 60.81 210.71 59.6 223.78"/>
    <path class="cls-3" d="M268,520.52a19.08,19.08,0,0,1-6.61-37,18.7,18.7,0,0,1,1.22-1.89,44.77,44.77,0,0,0-3.42-6.27c-2.43-3.7-5.85-12.62-6.91-15.72s-2.89-16.85-3.42-17.08-.76,0-3.12,1.06-4.48,5-5.32,6.8-5,13.15-5.24,13.15,1.06,1.28,1.06,1.28a18,18,0,0,1,3.42,2.65c.76,1.06,7.14,24.1,7.14,24.1l-1.59,2.65s.38,2.19,1,5.21c.68,3.18,1.59,7.33,2.66,11,2.12,7.32,4.48,18.89,4.48,18.89s3.19,5.29,5.85,10.8S265,565.85,265,566.08s4.49,7.41,5,10.28-1.29,9.44-1.29,9.44a58.56,58.56,0,0,0,.53,6.05,10.41,10.41,0,0,0,1.29,3.62c.76,1.06,.76,3.4.76,4.46s4.26,14.74,4.26,16.25-2.89,6-3.95,6.87c-.23.16-2,2-2.13,2.12a15.87,15.87,0,0,0,15.35-15.79V510.69A19.14,19.14,0,0,1,268,520.52Z" transform="translate(-181 -374.83)"/>
    <path class="cls-3" d="M268.92,374.83H244.45c.53.22,5.85,3.78,6.84,5s.76,3.17.23,5.51a52.32,52.32,0,0,1-1.6,5.22s-.76,1.88-.53,2.11a4,4,0,0,1,.53,1.36s-3.12,5.74-3.42,6-4.25,7.41-5.55,7.93c-.56.17-1,1.67-.53,2.05.71.54,4,2.94,4,2.94l1.6.23,3.95,2.64a4.21,4.21,0,0,0,2.13,2.35,38.31,38.31,0,0,1,8.2,7.85c2.36,3.18,2.89,10.28,3.12,15.72s2.43,17.38,2.89,18.14,4.25,10,5,12.31a46.07,46.07,0,0,1,1.37,7.64l3.65,4.45a19.48,19.48,0,0,1,8.51,7.86V390.55A15.82,15.82,0,0,0,268.92,374.83Z" transform="translate(-181 -374.83)"/>
    <polygon class="cls-1" points="312.67 250.34 241.36 250.34 198.22 54.3 198.22 250.34 151.49 250.34 151.49 0.07 234.77 0.07 265.33 162.75 265.93 0.07 312.67 0.07 312.67 250.34"/>
    <path class="cls-1" d="M652.69,444.62c0,23.84-6.59,41.11-44.94,47.07v1.2c31.16,2.38,44.94,14.3,44.94,54.22v22c0,42.9-24,56-70.71,56h-70.1V374.9H582c37.16,0,70.71,12.51,70.71,50.65Z" transform="translate(-181 -374.83)"/>
    <polygon class="cls-1" points="575.68 250.34 569.09 182.41 540.33 182.41 531.34 250.34 478.01 250.34 522.96 0.07 602.04 0.07 638 250.34 575.68 250.34"/>
    <path class="cls-2" d="M578.87,410.82h-7.19v68.52h7.19c9.58,0,13.78-4.17,13.78-16.09V426.9C592.65,415,588.45,410.82,578.87,410.82Z" transform="translate(-181 -374.83)"/>
    <path class="cls-2" d="M578.87,510.39h-7.19v79.25h7.19c9.58,0,13.78-1.79,13.78-11.92V522.31C592.65,512.17,588.45,510.39,578.87,510.39Z" transform="translate(-181 -374.83)"/>
    <polygon class="cls-2" points="546 146.71 565.17 146.71 555.59 43.62 546 146.71"/>
    <path class="cls-2" d="M221.81,597.19h-.91v10h.91c1.22,0,1.75-.23,1.75-1.51v-7C223.56,597.42,223,597.19,221.81,597.19Z" transform="translate(-181 -374.83)"/>
    <polygon class="cls-2" points="546 146.71 565.17 146.71 555.59 43.62 546 146.71"/>
    <path class="cls-2" d="M578.87,410.82h-7.19v68.52h7.19c9.58,0,13.78-4.17,13.78-16.09V426.9C592.65,415,588.45,410.82,578.87,410.82Z" transform="translate(-181 -374.83)"/>
    <path class="cls-2" d="M578.87,510.39h-7.19v79.25h7.19c9.58,0,13.78-1.79,13.78-11.92V522.31C592.65,512.17,588.45,510.39,578.87,510.39Z" transform="translate(-181 -374.83)"/>
    <polygon class="cls-2" points="546 146.71 565.17 146.71 555.59 43.62 546 146.71"/>
</svg>
